# xmcd CD database file
#
# Track frame offsets:
#	150
#	24531
#	44697
#
# Disc length: 917 seconds
#
# Revision: 2
# Processed by: cddbd v1.5.2PL0 Copyright (c) Steve Scherf et al.
# Submitted via: CDex 1.70beta3
#
DISCID=21039303
DTITLE=FictionJunction(Yuki Kajiura+Yuuka, Kaori, Wakana, Keiko, Yuriko Kaida, Hikaru) - FictionJunction Club
DYEAR=2012
DGENRE=Soundtrack
TTITLE0=sing a song
TTITLE1=silent moon
TTITLE2=sing a song -instrumental-
EXTD=YEAR: 2012
EXTT0=
EXTT1=
EXTT2=
PLAYORDER=
